<svg id="Layer_1" data-name="Layer 1" xmlns="http://www.w3.org/2000/svg" viewBox="0 0 597.76 158.5"><defs><style>.cls-1{fill:#a4a4a5;}</style></defs><polygon class="cls-1" points="141.61 93.97 141.61 84.86 102.8 84.86 98.75 84.86 69.22 84.86 69.22 134.3 98.75 134.3 102.8 134.3 141.61 134.3 141.61 125.19 102.8 125.19 102.8 114.14 141.61 114.14 141.61 105.02 102.8 105.02 102.8 93.97 141.61 93.97"/><path class="cls-1" d="M241,93.06v-8.2H189.89A14.19,14.19,0,0,0,175.7,99.05V134.3H241v-8.2H197.4v-12h37V105h-37v-12Z"/><path class="cls-1" d="M467.82,93.06v-8.2H416.7a14.19,14.19,0,0,0-14.19,14.19V134.3h65.31v-8.2H424.21v-12h37V105h-37v-12Z"/><path class="cls-1" d="M315.76,93.06v-8.2H264.64a14.19,14.19,0,0,0-14.19,14.19V134.3h65.31V105H285.55v8.09h22.26v13H272.15v-12h.07V105h-.07v-12Z"/><path class="cls-1" d="M548.67,134.3l-22.79-20.16h4.5A13.15,13.15,0,0,0,543.53,101V97.88a13,13,0,0,0-13-13H492.42a14.19,14.19,0,0,0-14.19,14.19V134.3h21.68l0-8.2V114.2l22.7,20.1ZM499.93,93.06h29a5.29,5.29,0,0,1,5.29,5.29v1.38a5.29,5.29,0,0,1-5.29,5.29h-29Z"/><rect class="cls-1" x="175.7" y="24.19" width="368.43" height="37.38"/><path class="cls-1" d="M392.56,93.06v-8.2H341.44a14.19,14.19,0,0,0-14.19,14.19V134.3h65.31V105H362.35v8.09h22.26v13H349v-12H349V105H349v-12Z"/></svg>