<svg id="Layer_1" data-name="Layer 1" xmlns="http://www.w3.org/2000/svg" viewBox="0 0 597.76 158.5"><defs><style>.cls-1{fill:#a4a4a5;}</style></defs><rect class="cls-1" x="160.12" y="28.96" width="13.8" height="100.57"/><polygon class="cls-1" points="349.62 129.53 309.62 28.96 309.55 28.99 309.56 28.96 297.6 28.96 253.91 129.53 265.86 129.53 302.07 46.19 334.89 129.53 349.62 129.53"/><polygon class="cls-1" points="460.4 28.96 417.55 129.51 403.76 129.53 364.69 28.96 378.49 28.96 411.93 112.31 446.6 28.96 460.4 28.96"/><polygon class="cls-1" points="240.03 129.29 190.13 76.03 232.7 29.59 217.97 29.59 180.33 70.73 180.33 84.1 180.33 85.33 180.91 84.72 223.46 129.29 240.03 129.29"/></svg>