<svg width="307" height="309" viewBox="0 0 307 309" fill="none" xmlns="http://www.w3.org/2000/svg">
<g clip-path="url(#clip0_7_28)">
<path d="M207 267C208.2 281.8 183.5 298.5 171 305L200.5 297C205.167 289.833 214.8 272.6 216 261C217.5 246.5 199.147 232.603 191.5 224C183.5 215 187.5 205.5 200.5 193.5C213.5 181.5 252.5 150 272 132C287.6 117.6 288.5 97.3333 287 89C284.667 84.6667 278.4 73.5 272 63.5C280.5 108.5 265.42 130.913 242.5 152C220 172.7 188 190 176 208C165.831 223.254 173.411 227.946 183.818 234.388L184 234.5C194.5 241 205.5 248.5 207 267Z" fill="#FEF6C6"/>
<path d="M301 153.5C301 237.2 235.158 305 154 305C72.8422 305 7 237.2 7 153.5C7 69.8004 72.8422 2 154 2C235.158 2 301 69.8004 301 153.5Z" stroke="#FEF6C6" stroke-width="2"/>
<path d="M187.461 170.714C169.842 199.407 145.055 219.914 119.264 229.901C93.4734 239.887 66.7369 239.339 45.0885 226.045C23.4402 212.752 10.8578 189.154 8.09801 161.636C5.33814 134.117 12.4158 102.735 30.0353 74.0424C47.6549 45.3498 72.4411 24.8426 98.2326 14.856C124.023 4.86984 150.76 5.41762 172.408 18.7114C194.056 32.0053 206.639 55.6024 209.399 83.1207C212.158 110.64 205.081 142.022 187.461 170.714Z" stroke="#FEF6C6" stroke-width="2"/>
<path d="M155.036 165.304C140.663 188.71 120.54 205.27 99.8581 213.278C79.1821 221.284 58.303 220.657 41.6483 210.43C24.9936 200.203 14.9903 181.865 12.7778 159.804C10.5648 137.737 16.2319 112.299 30.6051 88.893C44.9783 65.487 65.1015 48.9263 85.7831 40.9183C106.459 32.9125 127.338 33.5392 143.993 43.7665C160.648 53.9938 170.651 72.3313 172.863 94.3925C175.076 116.46 169.409 141.897 155.036 165.304Z" stroke="#FEF6C6" stroke-width="12"/>
<path d="M128.035 165.941C116.688 184.418 100.734 197.613 84.1495 204.034C67.5663 210.455 50.413 210.09 36.5413 201.572C22.6696 193.053 14.585 177.92 12.8105 160.226C11.0359 142.531 15.5863 122.334 26.9326 103.857C38.2789 85.3798 54.2336 72.1855 70.8178 65.7641C87.401 59.343 104.554 59.7081 118.426 68.2264C132.298 76.7447 140.382 91.8777 142.157 109.572C143.931 127.267 139.381 147.465 128.035 165.941Z" stroke="#FEF6C6" stroke-width="2"/>
</g>
<defs>
<clipPath id="clip0_7_28">
<rect width="307" height="309" fill="white"/>
</clipPath>
</defs>
</svg>
