<svg width="307" height="309" fill="none" xmlns="http://www.w3.org/2000/svg"><g clip-path="url('#clip0_7_28')"><path d="M207 267c1.2 14.8-23.5 31.5-36 38l29.5-8c4.667-7.167 14.3-24.4 15.5-36 1.5-14.5-16.853-28.397-24.5-37-8-9-4-18.5 9-30.5s52-43.5 71.5-61.5c15.6-14.4 16.5-34.667 15-43-2.333-4.333-8.6-15.5-15-25.5 8.5 45-6.58 67.413-29.5 88.5-22.5 20.7-54.5 38-66.5 56-10.169 15.254-2.589 19.946 7.818 26.388l.182.112c10.5 6.5 21.5 14 23 32.5Z" fill="#FEF6C6"/><path d="M301 153.5c0 83.7-65.842 151.5-147 151.5S7 237.2 7 153.5 72.842 2 154 2s147 67.8 147 151.5Z" stroke="#FEF6C6" stroke-width="2"/><path d="M187.461 170.714c-17.619 28.693-42.406 49.2-68.197 59.187-25.79 9.986-52.527 9.438-74.175-3.856-21.649-13.293-34.231-36.891-36.991-64.409-2.76-27.519 4.318-58.901 21.937-87.594 17.62-28.692 42.406-49.2 68.198-59.186 25.79-9.986 52.527-9.438 74.175 3.855 21.648 13.294 34.231 36.891 36.991 64.41 2.759 27.519-4.318 58.901-21.938 87.593Z" stroke="#FEF6C6" stroke-width="2"/><path d="M155.036 165.304c-14.373 23.406-34.496 39.966-55.178 47.974-20.676 8.006-41.555 7.379-58.21-2.848-16.654-10.227-26.658-28.565-28.87-50.626-2.213-22.067 3.454-47.505 17.827-70.911 14.373-23.406 34.496-39.967 55.178-47.975 20.676-8.005 41.555-7.379 58.21 2.849 16.655 10.227 26.658 28.564 28.87 50.625 2.213 22.068-3.454 47.505-17.827 70.912Z" stroke="#FEF6C6" stroke-width="12"/><path d="M128.035 165.941c-11.347 18.477-27.301 31.672-43.885 38.093-16.584 6.421-33.737 6.056-47.609-2.462-13.871-8.519-21.956-23.652-23.73-41.346-1.775-17.695 2.775-37.892 14.122-56.369 11.346-18.477 27.3-31.671 43.885-38.093 16.583-6.421 33.736-6.056 47.608 2.462 13.872 8.519 21.956 23.652 23.731 41.346 1.774 17.695-2.776 37.893-14.122 56.369Z" stroke="#FEF6C6" stroke-width="2"/></g><defs><clipPath id="clip0_7_28"><path fill="#fff" d="M0 0h307v309H0z"/></clipPath></defs></svg>