<svg id="logo-18" width="147" height="62" fill="none" xmlns="http://www.w3.org/2000/svg"><path d="M73.73 20.454c.605-.008 1.119-.121 1.11-.742v-.094c.009-.618-.505-.731-1.11-.74-.607.009-1.121.122-1.113.74v.094c-.008.62.506.734 1.113.742ZM51.63 19.206a.323.323 0 0 0-.324-.325H49.5v.647h1.805c.09 0 .166-.031.229-.093a.312.312 0 0 0 .096-.23ZM61.79 18.873l.52 1.121h-1.042l.523-1.121ZM84.98 18.873l.52 1.121h-1.043l.523-1.121ZM48.057 42.486l-.768-1.658-.773 1.657h1.54ZM66.186 42.01c0 .563-.321 1.027-.889 1.027H62.9v-2.055h2.397c.568 0 .89.46.89 1.028ZM72.257 40.828l.769 1.657h-1.541l.772-1.657ZM81.594 40.84a.478.478 0 0 1 .338.819.46.46 0 0 1-.338.138h-2.668v-.956h2.668ZM90.42 42.01c0 .563-.321 1.027-.89 1.027h-2.396v-2.055h2.397c.568 0 .89.46.89 1.028ZM37.912 31.547l-2.784-6.429H30.35v10.715h3.48v-5.787l2.512 5.787h3.113l2.539-5.787v5.787h3.467V25.118h-4.628l-2.92 6.43ZM59.666 35.833v-2.661h-7.684v-1.393h7.37v-2.607h-7.37v-1.379h7.589v-2.675H48.378v10.715h11.288ZM62.603 33.936c1.065 1.379 2.962 2.061 5.241 2.061 1.712 0 2.967-.348 3.841-.899.15-.095.29-.196.418-.302l.096 1.037h2.935v-6.347h-7.126v2.307h3.809a1.64 1.64 0 0 1-.159.444c-.052.102-.114.2-.183.28-.395.463-1.447.873-2.811.873-1.42 0-2.335-.369-2.826-.942-.328-.423-.519-1.024-.519-1.925 0-.941.191-1.583.56-2.006.532-.6 1.433-.86 2.757-.86 1.188 0 2.007.273 2.389.614.246.205.437.492.478.683h3.535a3.21 3.21 0 0 0-.053-.444c-.052-.28-.14-.59-.26-.84-.847-1.72-2.813-2.743-6.157-2.743-2.907 0-4.86.887-5.938 2.225-.71.914-1.037 2.061-1.037 3.344 0 1.42.382 2.635 1.01 3.44Z" class="ccustom" fill="#a4a4a5"/><path d="M65.763 30.523c0-.89.182-1.405.45-1.713.401-.452 1.135-.71 2.423-.71 1.146 0 1.832.269 2.093.502l.006.005.006.005c.09.075.172.168.234.258a.67.67 0 0 1 .093.172h-3.504v3.195h3.566c-.127.144-.401.324-.837.469-.433.144-.99.24-1.63.24-1.348 0-2.107-.35-2.48-.779-.245-.32-.42-.811-.42-1.644ZM84.407 29.066l-1.017 1.942h1.978l-.96-1.942Z" class="ccustom" fill="#a4a4a5"/><path fill-rule="evenodd" clip-rule="evenodd" d="m87.243 33.854.942 1.98h3.945l-5.406-10.716h-4.409l-5.72 10.715h3.864l.996-1.979h5.788Zm-4.587-2.402 1.352-2.58.41-.983.381.97 1.284 2.593h-3.427Z" class="ccustom" fill="#a4a4a5"/><path fill-rule="evenodd" clip-rule="evenodd" d="M115.726 54.387h-.006l-.228-.001v.001H32c-7.368 0-13.94-3.407-18.226-8.731h12.301v-1.56H12.621A23.25 23.25 0 0 1 8.8 33.963h17.276v-1.559H8.655A23.733 23.733 0 0 1 8.612 31c0-3.087.598-6.033 1.684-8.731h15.778v-1.56H10.993a23.485 23.485 0 0 1 7.077-8.497h83.725a23.43 23.43 0 0 1 2.391-1.559H20.46A23.28 23.28 0 0 1 32 7.613h83.492v.001l.234-.001c12.916 0 23.387 10.47 23.387 23.387 0 12.916-10.471 23.387-23.387 23.387Zm8.696-12.418c1.047-3.155 1.672-6.902 1.672-10.969 0-3.792-.544-7.305-1.465-10.32a25.932 25.932 0 0 0-1.015-2.777 21.933 21.933 0 0 0-1.017-2.063c-1.706-3.027-3.652-4.657-5.468-5.206v7.27h4.776c.404.861.773 1.8 1.099 2.806h-5.875v8.887h7.38a38.202 38.202 0 0 1 0 2.806h-7.38v8.887h5.874a24.06 24.06 0 0 1-1.098 2.807h-4.776v7.27c1.816-.55 3.762-2.18 5.468-5.207.361-.642.702-1.331 1.017-2.063.291-.674.561-1.385.808-2.128Zm3.138-21.26c.749 2.71 1.212 5.713 1.317 8.888h7.382a20.468 20.468 0 0 0-2.706-8.887h-5.993Zm4.042-2.806h-4.959c-.9-2.358-2.036-4.41-3.348-6.047a20.629 20.629 0 0 1 8.307 6.047Zm-17.279-7.27v7.27h-6.486c.316-.732.656-1.421 1.018-2.063 1.705-3.027 3.652-4.658 5.468-5.207Zm-6.167 1.223c-1.312 1.637-2.447 3.689-3.347 6.047h-4.96a20.635 20.635 0 0 1 8.307-6.047Zm-4.265 8.854h-8.98v1.559h2.173a20.451 20.451 0 0 0-1.892 7.328h7.382c.106-3.175.568-6.178 1.317-8.887Zm10.432 0h-7.509c-.802 2.632-1.315 5.643-1.431 8.887h8.94V20.71Zm14.554 11.693c-.105 3.174-.568 6.178-1.317 8.887h5.993a20.469 20.469 0 0 0 2.706-8.887h-7.382Zm-22.063 8.887c-.802-2.632-1.315-5.643-1.431-8.887h8.94v8.887h-7.509Zm-2.923 0c-.749-2.709-1.211-5.713-1.317-8.887h-7.382a20.46 20.46 0 0 0 2.706 8.887h5.993Zm22.752 2.807c-.9 2.358-2.036 4.41-3.347 6.047a20.633 20.633 0 0 0 8.306-6.047h-4.959Zm-18.806 0h6.486v7.27c-1.816-.549-3.763-2.18-5.468-5.207a21.694 21.694 0 0 1-1.018-2.063Zm-3.028 0h-9.898v1.559h6.366a20.597 20.597 0 0 0 6.879 4.488c-1.312-1.637-2.447-3.689-3.347-6.047Zm-31.08-26.422c-1.428.003-2.598.415-2.592 1.853v.277c-.006 1.435 1.164 1.85 2.593 1.853 1.426-.003 2.596-.418 2.59-1.853v-.277c0-1.435-1.161-1.853-2.59-1.853Zm-44.401.093v3.796h1.48v-3.796h-1.48Zm5.968 2.011-1.666-2.01h-2.037v3.795h1.48v-2.319l2.04 2.32h1.666v-3.797h-1.483v2.011Zm5.237-.802v2.593h-1.48v-2.593h-1.76v-1.203h5v1.203h-1.76Zm2.257 2.593h4.443v-.974H44.27v-.486h2.963v-.879H44.27v-.486h2.963v-.971H42.79v3.796Zm5.23-.003v-3.796h3.658a1.433 1.433 0 0 1 1.435 1.435 1.424 1.424 0 0 1-.828 1.297l.828 1.064h-1.576l-.714-.926H49.5v.926h-1.48Zm9.257-1.788-1.667-2.01h-2.036v3.795h1.48v-2.319l2.04 2.32h1.666v-3.797h-1.483v2.011Zm3.262 1.791h-1.666l2.036-3.796h1.76l2.036 3.796H63.04l-.3-.65h-1.9l-.3.65Zm6.426 0v-2.593h1.76v-1.203h-5v1.203h1.76v2.593h1.48Zm2.257-.006v-3.796h1.48v3.796h-1.48Zm9.578-3.796 1.666 2.011v-2.01h1.483v3.795h-1.666l-2.04-2.319v2.32h-1.48v-3.797H78.8Zm3.262 3.802h1.667l.3-.65h1.9l.3.65h1.666l-2.036-3.796h-1.76l-2.037 3.796Zm5.949-.006v-3.796h1.48v2.593h2.963v1.203H88.01ZM33.163 40.498c-.68 0-1.516.1-1.516.547 0 .246.68.28 1.562.322h.01c1.565.08 3.756.19 3.752 1.595 0 1.603-1.837 1.983-3.808 1.983-1.967-.004-3.6-.242-3.808-1.983h2.292c.25.434.831.546 1.516.546.68 0 1.516-.112 1.516-.547 0-.246-.681-.283-1.562-.325h-.01c-1.565-.08-3.756-.19-3.752-1.591 0-1.603 1.837-1.988 3.808-1.988 1.966.013 3.599.234 3.808 1.988h-2.292c-.251-.443-.831-.547-1.516-.547Zm8.664.484v3.833h-2.188v-3.833h-2.601v-1.778h7.39v1.778h-2.601Zm1.148 3.833h2.463l.443-.96h2.81l.443.96h2.463l-3.01-5.611h-2.602l-3.01 5.611Zm11.804-5.62 2.463 2.973v-2.973h2.193v5.612H56.97l-3.015-3.428v3.428h-2.188v-5.612h3.011Zm5.933.009v5.611h4.994c1.54.021 2.685-1.281 2.672-2.805.013-1.533-1.131-2.827-2.672-2.806h-4.994Zm9.696 5.611h-2.464l3.01-5.611h2.602l3.01 5.611h-2.463l-.443-.96h-2.81l-.442.96Zm6.33-5.615v5.611h2.188v-1.37h1.954l1.056 1.37h2.33l-1.224-1.574c.368-.171.664-.43.886-.768.225-.343.338-.727.338-1.148.016-1.161-.965-2.134-2.121-2.121h-5.407Zm8.208 5.615v-5.611h4.994c1.54-.021 2.685 1.273 2.673 2.806.012 1.524-1.132 2.826-2.673 2.805h-4.994Zm-39.042-8.538H41.55v-4.114l-1.805 4.114h-3.693l-1.777-4.093v4.093h-4.368V24.674h5.513l2.503 5.779 2.625-5.779h5.357v11.603Zm14.206 0H47.934V24.674h12.081v3.563h-7.59v.491h7.372v3.495h-7.371v.505h7.684v3.55Zm15.468 0h-3.784l-.064-.689c-.948.539-2.232.853-3.886.853-2.352 0-4.41-.704-5.592-2.233-.703-.902-1.103-2.22-1.103-3.712 0-1.359.347-2.607 1.13-3.616l.003-.004.003-.003c1.189-1.475 3.29-2.39 6.283-2.39 3.42 0 5.6 1.051 6.554 2.992l.001.001v.002c.223.46.343 1.067.358 1.458l.005.106h.091v7.235Zm6.15-1.98-.996 1.98h-4.876l6.193-11.603h4.949l5.853 11.603h-4.947l-.941-1.98h-5.234Zm-52.457 16.27h63.535v-1.559H29.27v1.56Z" class="ccustom" fill="#a4a4a5"/><path fill-rule="evenodd" clip-rule="evenodd" d="M32 2h83.726c16.016 0 29 12.984 29 29s-12.984 29-29 29H32C15.984 60 3 47.016 3 31S15.984 2 32 2Zm0 2.806C17.534 4.806 5.806 16.535 5.806 31S17.535 57.194 32 57.194h83.726c14.466 0 26.193-11.728 26.193-26.194S130.192 4.806 115.726 4.806H32Z" class="ccustom" fill="#a4a4a5"/></svg>