<svg id="Layer_1" data-name="Layer 1" xmlns="http://www.w3.org/2000/svg" viewBox="0 0 597.76 158.5"><defs><style>.cls-1{fill:#a4a4a5;}
</style></defs><path class="cls-1" d="M166,57.76c-6.44-10.47-24.44-35.64-52.36-43a77.29,77.29,0,0,1,21-3.45h1.17a30.59,30.59,0,0,1,30.41,27.37A82.49,82.49,0,0,1,166,57.76Z"></path><path class="cls-1" d="M94.63,81.43A91.23,91.23,0,0,1,80,63.35a25.4,25.4,0,0,1,4.62-32.18h0A77.41,77.41,0,0,1,105.38,17.8,113.18,113.18,0,0,0,94.53,51.18,106,106,0,0,0,94.63,81.43Z"></path><path class="cls-1" d="M164.43,66.25a83.11,83.11,0,0,1-6.29,17.56l-.53,1.08a29,29,0,0,1-38.81,13.2l-1.34-.65a91.62,91.62,0,0,1-13.29-8,110.81,110.81,0,0,0,33-7.11A100.15,100.15,0,0,0,164.43,66.25Z"></path><path class="cls-1" d="M231.57,57.76H187.42v89.09H211V109.62h7.14a3.5,3.5,0,0,1,3.5,3.5v33.73h23.35V115.29a13.16,13.16,0,0,0-11-13h0a14.32,14.32,0,0,0,11-13.93V71.14A13.37,13.37,0,0,0,231.57,57.76Zm-10,33.79a3.5,3.5,0,0,1-3.5,3.5H211V72.91h7.14a3.5,3.5,0,0,1,3.5,3.49Z"></path><polygon class="cls-1" points="342.13 95.05 330.39 95.05 330.39 57.76 306.57 57.76 306.57 146.85 330.39 146.85 330.39 109.78 342.13 109.78 342.13 146.85 365.95 146.85 365.95 57.76 342.13 57.76 342.13 95.05"></polygon><polygon class="cls-1" points="273.92 57.76 256.01 57.76 256.01 146.85 273.92 146.85 273.92 147.06 296.34 147.06 296.34 129.68 279.83 129.68 279.83 109.78 293.57 109.78 293.57 95.05 279.83 95.05 279.83 75.14 296.34 75.14 296.34 57.76 279.83 57.76 273.92 57.76"></polygon><path class="cls-1" d="M479.12,57.76v68.87a5.5,5.5,0,0,1-11,0V57.76H444.32v73.36a15.73,15.73,0,0,0,15.73,15.73H487.2a15.74,15.74,0,0,0,15.74-15.73V57.76Z"></path><path class="cls-1" d="M410.68,57.76H391.46a15.05,15.05,0,0,0-15,15.06v74h23.81V109.78h10.46v37.07H434.5V57.76H410.68Zm0,37.29H400.22V77a4.55,4.55,0,0,1,4.55-4.54h5.91Z"></path></svg>