<svg id="Layer_1" data-name="Layer 1" xmlns="http://www.w3.org/2000/svg" viewBox="0 0 597.76 158.5"><defs><style>.cls-1{fill:#a4a4a5;}
</style></defs><path class="cls-1" d="M95,129.5l-3.27-1.16,15-42.53a2.34,2.34,0,0,0-2.6-3.08L98,83.8a3.24,3.24,0,0,1-3-5.37l22.44-24.66a5.08,5.08,0,0,1,8.82,3L129,89.86a3.23,3.23,0,0,1-5.36,2.69l-6.4-5.68a1,1,0,0,0-.93-.22,1,1,0,0,0-.69.65l-14.42,42.18-3.28-1.12,14.41-42.18a4.48,4.48,0,0,1,7.21-1.9l6,5.27L122.8,57.06a1.61,1.61,0,0,0-2.79-1L98,80.27l5.52-1A5.81,5.81,0,0,1,110,87Z"></path><polygon class="cls-1" points="214.83 128.92 251.11 26.31 282.11 26.31 246.05 128.92 214.83 128.92"></polygon><path class="cls-1" d="M212.71,55.37c-9.08-5.79-23.22-3.17-35.5,4.82l11.91-33.88h-31L121.83,128.92h31.22l2-5.77a20.5,20.5,0,0,0,4.93,4.4c14,8.93,42.37-.11,55.06-20S226.7,64.3,212.71,55.37ZM188.3,101c-7.59,7.59-18.11,9.36-23.5,4s-3.61-15.9,4-23.49,18.1-9.36,23.49-4S195.88,93.37,188.3,101Z"></path><path class="cls-1" d="M278.18,55.72h30.26L292,98.47a7.51,7.51,0,0,0,7,10.21h0a13.8,13.8,0,0,0,12.86-8.81L329,55.72h29.84l-26.52,73.2H302.43l1.65-5.85s-7.87,9.12-25.9,9.12-21.14-16-18-25.49S278.18,55.72,278.18,55.72Z"></path><path class="cls-1" d="M339.94,128.92l25.49-73.2h31.5l-2.49,5.59s12.85-8.08,25.7-8.08a19.09,19.09,0,0,1,17.4,11s9.12-10.15,31.71-10.15,20.52,20.52,17.62,28.18-16.38,46.68-16.38,46.68h-31.7l14.52-39.71A8.8,8.8,0,0,0,445,77.38h0a8.81,8.81,0,0,0-8.32,5.9l-16,45.64H388.43l14.49-39.85a8.54,8.54,0,0,0-8-11.46h0a8.54,8.54,0,0,0-8.05,5.71l-16,45.6Z"></path></svg>