<svg id="Layer_1" data-name="Layer 1" xmlns="http://www.w3.org/2000/svg" viewBox="0 0 597.76 158.5"><defs><style>.cls-1{fill:#a4a4a5;}
</style></defs><path class="cls-1" d="M417.3,54v81.41H395.53V54H417.3M420.24,51H392.6v87.28h27.64V51Z"></path><path class="cls-1" d="M353.25,94.78v12.91H344.4a12.85,12.85,0,0,1-12.84-12.84v-.07h21.69m2.93-2.94H328.63v3a15.77,15.77,0,0,0,15.77,15.77h11.78V91.84Z"></path><path class="cls-1" d="M372.56,53.7A12.85,12.85,0,0,1,385.4,66.53v.1H363.71V53.7h8.85m0-2.93H360.78V69.56h27.55v-3a15.76,15.76,0,0,0-15.77-15.76Z"></path><path class="cls-1" d="M352.72,53.7l.07,11.85a7.51,7.51,0,0,0,4.49,7.08,52.86,52.86,0,0,0,10.29,3.21h.07L376,77.41a11.53,11.53,0,0,1,9.41,11.33v6.11a12.85,12.85,0,0,1-12.84,12.84h-8.85V93.44c0-3.51-4.29-4.77-6.94-5.21l-18.36-4.52A9,9,0,0,1,331.56,75V66.53A12.85,12.85,0,0,1,344.4,53.7h8.32m2.92-2.93H344.4a15.76,15.76,0,0,0-15.77,15.76V75a11.94,11.94,0,0,0,9.08,11.59l18.47,4.54s4.6.74,4.6,2.34v17.18h11.78a15.77,15.77,0,0,0,15.77-15.77V88.74a14.45,14.45,0,0,0-11.8-14.21L368.18,73a49.44,49.44,0,0,1-9.71-3,4.62,4.62,0,0,1-2.75-4.37l-.08-14.81Z"></path><rect class="cls-1" x="14.09" y="45.41" width="27.64" height="65.21"></rect><rect class="cls-1" x="78.05" y="50.77" width="27.64" height="59.86"></rect><rect class="cls-1" x="203.08" y="50.77" width="27.64" height="59.86"></rect><path class="cls-1" d="M233.52,50.77h13.15a14.49,14.49,0,0,1,14.49,14.49v45.37a0,0,0,0,1,0,0H233.52a0,0,0,0,1,0,0V50.77A0,0,0,0,1,233.52,50.77Z"></path><path class="cls-1" d="M108.68,50.77h11.78a15.85,15.85,0,0,1,15.85,15.85V80.69a0,0,0,0,1,0,0H108.68a0,0,0,0,1,0,0V50.77A0,0,0,0,1,108.68,50.77Z"></path><path class="cls-1" d="M72.75,110.62H45.11V50.77H72.75V71.09a6.84,6.84,0,0,1-2.15,5l-4.23,4L70.11,83a6.8,6.8,0,0,1,2.64,5.39Z"></path><path class="cls-1" d="M155.62,50.77H167.4a0,0,0,0,1,0,0v59.86a0,0,0,0,1,0,0H155.62a15.77,15.77,0,0,1-15.77-15.77V66.53A15.77,15.77,0,0,1,155.62,50.77Z"></path><path class="cls-1" d="M186.06,50.77h11.78a0,0,0,0,1,0,0v59.86a0,0,0,0,1,0,0H186.06a15.77,15.77,0,0,1-15.77-15.77V66.53A15.77,15.77,0,0,1,186.06,50.77Z" transform="translate(368.14 161.39) rotate(180)"></path><path class="cls-1" d="M281.81,50.77h11.78a0,0,0,0,1,0,0v59.86a0,0,0,0,1,0,0H281.81A15.77,15.77,0,0,1,266,94.85V66.53A15.77,15.77,0,0,1,281.81,50.77Z"></path><path class="cls-1" d="M312.25,50.77H324a0,0,0,0,1,0,0v59.86a0,0,0,0,1,0,0H312.25a15.77,15.77,0,0,1-15.77-15.77V66.53a15.77,15.77,0,0,1,15.77-15.77Z" transform="translate(620.52 161.39) rotate(180)"></path><path class="cls-1" d="M436.29,53.7a12.85,12.85,0,0,1,12.83,12.83V94.85a12.85,12.85,0,0,1-12.83,12.84h-8.85v-54h8.85m0-2.93H424.5v59.85h11.79a15.77,15.77,0,0,0,15.76-15.77V66.53a15.76,15.76,0,0,0-15.76-15.76Z"></path><path class="cls-1" d="M481,53.7V66.63H460.4V65.36A11.67,11.67,0,0,1,472.06,53.7H481m2.93-2.93H472.06a14.59,14.59,0,0,0-14.59,14.59v4.2H483.9V50.77Z"></path><path class="cls-1" d="M481,76.57v31.12H470.2a9.81,9.81,0,0,1-9.8-9.8V86.37a9.81,9.81,0,0,1,9.8-9.8H481m2.93-2.93H470.2a12.73,12.73,0,0,0-12.73,12.73V97.89a12.73,12.73,0,0,0,12.73,12.73h13.7v-37Z"></path><path class="cls-1" d="M513,54v53.72H491.7V54H513M515.89,51H488.77v59.59h27.12V51Z"></path><path class="cls-1" d="M545.73,54v53.72H524.48V54h21.25M548.67,51H521.55v59.59h27.12V51Z"></path><path class="cls-1" d="M565.3,54a10.4,10.4,0,0,1,10.38,10.39v43.33H554.43V54H565.3m0-2.94H551.5v59.59h27.12V64.36A13.33,13.33,0,0,0,565.3,51Z"></path></svg>