<svg id="Layer_1" data-name="Layer 1" xmlns="http://www.w3.org/2000/svg" viewBox="0 0 597.76 158.5"><defs><style>.cls-1,.cls-2,.cls-3,.cls-4{fill:#a4a4a5;}.cls-1{opacity:0.4;}.cls-2{opacity:0.7;}.cls-3{opacity:0.9;}
</style></defs><polygon class="cls-1" points="442.06 76.02 442.06 60.65 532.96 7.73 532.96 23.31 442.06 76.02"></polygon><polygon class="cls-2" points="442.06 97.14 442.06 81.78 532.96 28.86 532.96 44.43 442.06 97.14"></polygon><polygon class="cls-3" points="442.06 118.26 442.06 102.9 532.96 49.98 532.96 65.56 442.06 118.26"></polygon><polygon class="cls-4" points="442.06 139.39 442.06 124.03 532.96 71.11 532.96 86.68 442.06 139.39"></polygon><polygon class="cls-4" points="143.14 56.49 143.14 91.56 116.09 91.56 116.09 56.49 98.55 56.49 98.55 138.43 116.09 138.43 116.09 105.05 143.14 105.05 143.14 138.43 160.69 138.43 160.69 56.49 143.14 56.49"></polygon><path class="cls-4" d="M189.92,73.56c-26.24,0-26.45,24.17-26.45,27s-1.28,24.19,10.66,33.15,30.3,6.62,37.13,3c0-5.12-.64-13.44-.64-13.44a20.88,20.88,0,0,1-13,4.32c-8.11,0-18-9.11-18-22.25h32.92S216.17,73.56,189.92,73.56Zm-10.2,20a8.58,8.58,0,0,1,17.07,0Z"></path><path class="cls-4" d="M212.71,88.2V75.28H224V56.49l16.75-9.9v29h19.28V88.2H240.63v29.4s-1,10,7.1,10,8.24-2.76,8.24-2.76v13.59S252.7,140,242.34,140s-18.47-4.88-18.47-14.25V88.34Z"></path><path class="cls-4" d="M249.49,88.2V75.28H260.8V56.49l16.76-9.9v29H294V88.2H277.41v29.4s-1,10,7.1,10,8.24-2.76,8.24-2.76v13.59S289.48,140,279.12,140s-18.47-4.88-18.47-14.25V88.34Z"></path><rect class="cls-4" x="296.83" y="75.28" width="17.66" height="63.15"></rect><path class="cls-4" d="M350.84,99.14h17.47s0-12.36-6.39-18.89S338.34,71.87,329,78.12,317.32,95,317.32,106.85s4.41,23.44,14.92,28.5,21.58,5.54,35.22,1.28V124.28S364.9,127,354.25,127s-19.88-12.07-20-21.44c-.16-10.65,2.7-18.46,9.38-18.46C352.12,87.07,350.84,99.14,350.84,99.14Z"></path><path class="cls-4" d="M370.87,56.82l16.86-10.23V81.81s4.58-7.53,15.66-7.53,17.18,9.66,17.18,18v46.11H403.39V96.72s.71-6.39-3.27-6.25-12.39,7-12.39,18.18v29.78H370.87Z"></path></svg>