<svg id="Layer_1" data-name="Layer 1" xmlns="http://www.w3.org/2000/svg" viewBox="0 0 597.76 158.5"><defs><style>.cls-1{fill:#a4a4a5;}
</style></defs><path class="cls-1" d="M57.82,127.11v-96H69.69A8,8,0,0,1,77.36,37L85,65.57A7.27,7.27,0,0,0,92,71h19.31a5.83,5.83,0,0,0,5.82-5.82V35.7a4.55,4.55,0,0,1,4.55-4.55h18.64v96H128.13a7.56,7.56,0,0,1-7.28-5.51l-8-28.56a7.84,7.84,0,0,0-7.54-5.72H87.51a6,6,0,0,0-6,6v29.48a4.28,4.28,0,0,1-4.28,4.27Z"></path><rect class="cls-1" x="157.19" y="31.15" width="25.24" height="95.96"></rect><path class="cls-1" d="M278.16,63.44s.91-16.6-8-25.24-24.1-8.86-35.47-8.86-28.12,2.38-34.2,14.07c-4.94,9.53-4.46,22.6-4.46,33.83V97.55s-.45,17.28,9.78,24.33,20.37,7.28,31.22,7.28,31.54-.91,36.77-14.1,4.35-40.93,4.35-40.93H233.14l5,16.37h15.24s3.18,16.83-5.23,20.47-23.88,4.32-26.84-4.78S220,62.53,220,62.53,216.54,45,235.87,45c7.24,0,12,.82,14.68,4,4.45,5.26,3.74,14,3.74,14Z"></path><path class="cls-1" d="M372,77.78l-1.18-23.14a26.66,26.66,0,0,0-26.63-25.3H318a26.66,26.66,0,0,0-26.63,25.3l-1.18,23.14a24.5,24.5,0,0,0,0,2.71l1.19,23.36A26.66,26.66,0,0,0,318,129.16H344.2a26.66,26.66,0,0,0,26.62-25.31L372,80.49A24.5,24.5,0,0,0,372,77.78Zm-23.83,22a13.65,13.65,0,0,1-13.65,13.65h-6.8a13.64,13.64,0,0,1-13.64-13.65V60a15.4,15.4,0,0,1,15.4-15.4h3.29A15.41,15.41,0,0,1,348.18,60Z"></path><path class="cls-1" d="M408.42,107.7V31H384.84v89.88a6.32,6.32,0,0,0,6.32,6.32H451L447.43,116a6.34,6.34,0,0,0-6-4.4H412.32A3.91,3.91,0,0,1,408.42,107.7Z"></path><path class="cls-1" d="M539.9,77.72l-1.18-22.3C538,41.76,526.29,31,512.09,31h-54.4v96.2h54.4c14.19,0,25.9-10.72,26.62-24.39l1.19-22.51A22.9,22.9,0,0,0,539.9,77.72ZM516.07,99a13.41,13.41,0,0,1-13.65,13.15H481.27V45.73h19.39c8.51,0,15.41,6.65,15.41,14.85Z"></path></svg>